# xmcd
#
# Track frame offsets:
# 182
# 11137
# 24850
# 45037
# 58250
# 67950
# 85700
# 102137
# 121825
# 141500
# 160450
# 183812
# 195687
# 209237
#
# Disc length: 2946 seconds
#
#
# Revision: 10
# Processed by: cddbd v1.5.1PL0 Copyright (c) Steve Scherf et al.
# Submitted via: FreeRIP 2.941 
#
DISCID=bb0b800e
DTITLE=Crosby Stills Nash and Young - Crosby Stills Nash and Young
DYEAR=1992
DGENRE=Rock
TTITLE0=Everybody I Love You
TTITLE1=Our House
TTITLE2=Carry On
TTITLE3=Teach Your Children
TTITLE4=4 and 20
TTITLE5=Woodstock
TTITLE6=Helpless
TTITLE7=Long Time Gone
TTITLE8=Almost Cut My Hair
TTITLE9=Déjà Vu
TTITLE10=Country Girl
TTITLE11=Marrakesh Express
TTITLE12=Pre-Road Dows
TTITLE13=Lady On The Island
EXTD=
EXTT0=
EXTT1=
EXTT2=
EXTT3=
EXTT4=
EXTT5=
EXTT6=
EXTT7=
EXTT8=
EXTT9=
EXTT10=
EXTT11=
EXTT12=
EXTT13=
PLAYORDER=
